<?xml version="1.0" encoding="utf-8"?>
<svg xmlns="http://www.w3.org/2000/svg" viewBox="0 0 500 500" xmlns:bx="https://boxy-svg.com" width="500px" height="500px"><defs><bx:export><bx:file format="svg"/></bx:export></defs><path d="M 344.007 206.171 L 400.205 172.457 C 417.499 162.076 426.135 156.886 433.266 157.562 C 439.459 158.129 445.129 161.335 448.814 166.351 C 453.045 172.13 453.045 182.205 453.045 202.377 L 453.045 297.196 C 453.045 317.369 453.045 327.465 448.814 333.223 C 445.129 338.238 439.459 341.444 433.266 342.033 C 426.135 342.687 417.499 337.497 400.205 327.117 L 344.007 293.402 M 130.292 380.632 L 274.223 380.632 C 298.647 380.632 310.859 380.632 320.193 375.878 C 328.393 371.691 335.066 365.018 339.253 356.819 C 344.007 347.485 344.007 335.273 344.007 310.848 L 344.007 188.725 C 344.007 164.301 344.007 152.089 339.253 142.755 C 335.066 134.555 328.393 127.882 320.193 123.695 C 310.859 118.941 298.647 118.941 274.223 118.941 L 130.292 118.941 C 105.868 118.941 93.655 118.941 84.322 123.695 C 76.1 127.882 69.427 134.555 65.262 142.755 C 60.508 152.089 60.508 164.301 60.508 188.725 L 60.508 310.848 C 60.508 335.273 60.508 347.485 65.262 356.819 C 69.427 365.018 76.1 371.691 84.322 375.878 C 93.655 380.632 105.868 380.632 130.292 380.632 Z" stroke="#000000" stroke-linecap="round" stroke-linejoin="round" style="fill: rgb(255, 255, 255); paint-order: fill; stroke-width: 14px;"/><path d="M 194.97 186.103 C 195.881 186.103 196.334 185.573 196.563 184.74 C 198.909 172.092 198.757 171.788 211.935 169.291 C 212.846 169.139 213.376 168.609 213.376 167.701 C 213.376 166.79 212.846 166.26 211.935 166.108 C 198.835 163.458 199.213 163.154 196.563 150.659 C 196.334 149.825 195.881 149.295 194.97 149.295 C 194.062 149.295 193.61 149.825 193.38 150.659 C 190.73 163.154 191.186 163.458 178.005 166.108 C 177.175 166.26 176.567 166.79 176.567 167.701 C 176.567 168.609 177.175 169.139 178.005 169.291 C 191.186 171.94 191.034 172.092 193.38 184.74 C 193.61 185.573 194.062 186.103 194.97 186.103 Z M 158.317 238.209 C 159.755 238.209 160.74 237.301 160.892 235.937 C 163.616 215.715 164.298 215.715 185.202 211.702 C 186.565 211.473 187.551 210.565 187.551 209.127 C 187.551 207.763 186.565 206.778 185.202 206.551 C 164.298 203.672 163.542 202.99 160.892 182.391 C 160.74 181.03 159.755 180.045 158.317 180.045 C 156.953 180.045 155.968 181.03 155.816 182.468 C 153.318 202.764 152.258 202.69 131.506 206.551 C 130.143 206.855 129.157 207.763 129.157 209.127 C 129.157 210.642 130.143 211.473 131.81 211.702 C 152.41 215.034 153.318 215.564 155.816 235.785 C 155.968 237.301 156.953 238.209 158.317 238.209 Z M 209.663 322.046 C 211.634 322.046 213.072 320.608 213.45 318.563 C 218.827 277.059 224.66 270.775 265.708 266.231 C 267.827 266.002 269.268 264.412 269.268 262.444 C 269.268 260.476 267.827 258.961 265.708 258.657 C 224.66 254.114 218.827 247.825 213.45 206.325 C 213.072 204.28 211.634 202.916 209.663 202.916 C 207.695 202.916 206.257 204.28 205.953 206.325 C 200.576 247.825 194.669 254.114 153.696 258.657 C 151.499 258.961 150.061 260.476 150.061 262.444 C 150.061 264.412 151.499 266.002 153.696 266.231 C 194.592 271.608 200.273 277.137 205.953 318.563 C 206.257 320.608 207.695 322.046 209.663 322.046 Z" style=""/></svg>